<svg width="224" height="8" viewBox="0 0 224 8" fill="none" xmlns="http://www.w3.org/2000/svg">
<path d="M0.333333 4.06543C0.333333 5.53819 1.52724 6.7321 3 6.7321C4.47276 6.7321 5.66667 5.53819 5.66667 4.06543C5.66667 2.59267 4.47276 1.39876 3 1.39876C1.52724 1.39876 0.333333 2.59267 0.333333 4.06543ZM223.354 4.41898C223.549 4.22372 223.549 3.90714 223.354 3.71188L220.172 0.529896C219.976 0.334634 219.66 0.334634 219.464 0.529896C219.269 0.725158 219.269 1.04174 219.464 1.237L222.293 4.06543L219.464 6.89386C219.269 7.08912 219.269 7.4057 219.464 7.60096C219.66 7.79623 219.976 7.79623 220.172 7.60096L223.354 4.41898ZM3 4.56543H223V3.56543H3V4.56543Z" fill="white"/>
</svg>
