<svg width="333" height="8" viewBox="0 0 333 8" fill="none" xmlns="http://www.w3.org/2000/svg">
<path d="M0.333326 4.19659C0.333763 5.66935 1.52803 6.8629 3.00078 6.86247C4.47354 6.86203 5.6671 5.66777 5.66666 4.19501C5.66622 2.72225 4.47196 1.5287 2.9992 1.52913C1.52644 1.52957 0.332888 2.72383 0.333326 4.19659ZM332.854 4.45135C333.049 4.25603 333.049 3.93945 332.853 3.74424L329.67 0.563207C329.475 0.368003 329.159 0.368097 328.963 0.563417C328.768 0.758737 328.768 1.07532 328.964 1.27052L331.793 4.09811L328.965 6.92738C328.77 7.1227 328.77 7.43928 328.966 7.63448C329.161 7.82969 329.477 7.82959 329.673 7.63427L332.854 4.45135ZM3.00014 4.6958L332.5 4.5979L332.5 3.5979L2.99984 3.6958L3.00014 4.6958Z" fill="white"/>
</svg>
