<svg width="1220" height="684" viewBox="0 0 1220 684" fill="none" xmlns="http://www.w3.org/2000/svg">
<g clip-path="url(#clip0_525_330)">
<path d="M193.614 64.0981L231.678 29.5721C232.073 29.2207 232.588 29.0337 233.117 29.0492C233.646 29.0648 234.148 29.2818 234.522 29.6558C234.896 30.0298 235.113 30.5326 235.129 31.0613C235.144 31.59 234.957 32.1047 234.606 32.5001L200.08 70.5641C199.729 70.9468 199.533 71.4474 199.533 71.9671C199.533 72.4867 199.729 72.9874 200.08 73.3701L234.606 111.434C234.957 111.829 235.144 112.344 235.129 112.873C235.113 113.402 234.896 113.904 234.522 114.278C234.148 114.652 233.646 114.869 233.117 114.885C232.588 114.9 232.073 114.713 231.678 114.362L193.614 79.8361C193.231 79.4846 192.731 79.2895 192.211 79.2895C191.691 79.2895 191.191 79.4846 190.808 79.8361L152.744 114.362C152.349 114.713 151.834 114.9 151.305 114.885C150.777 114.869 150.274 114.652 149.9 114.278C149.526 113.904 149.309 113.402 149.293 112.873C149.278 112.344 149.465 111.829 149.816 111.434L184.342 73.3701C184.694 72.9874 184.889 72.4867 184.889 71.9671C184.889 71.4474 184.694 70.9468 184.342 70.5641L149.816 32.5001C149.465 32.1047 149.278 31.59 149.293 31.0613C149.309 30.5326 149.526 30.0298 149.9 29.6558C150.274 29.2818 150.777 29.0648 151.305 29.0492C151.834 29.0337 152.349 29.2207 152.744 29.5721L190.808 64.0981C191.191 64.4496 191.691 64.6446 192.211 64.6446C192.731 64.6446 193.231 64.4496 193.614 64.0981Z" fill="#0F172D"/>
<path d="M486.414 64.0981L524.478 29.5721C524.873 29.2207 525.388 29.0337 525.917 29.0492C526.445 29.0648 526.948 29.2818 527.322 29.6558C527.696 30.0298 527.913 30.5326 527.929 31.0613C527.944 31.59 527.757 32.1047 527.406 32.5001L492.88 70.5641C492.529 70.9468 492.333 71.4474 492.333 71.9671C492.333 72.4867 492.529 72.9874 492.88 73.3701L527.406 111.434C527.757 111.829 527.944 112.344 527.929 112.873C527.913 113.402 527.696 113.904 527.322 114.278C526.948 114.652 526.445 114.869 525.917 114.885C525.388 114.9 524.873 114.713 524.478 114.362L486.414 79.8361C486.031 79.4846 485.531 79.2895 485.011 79.2895C484.491 79.2895 483.991 79.4846 483.608 79.8361L445.544 114.362C445.149 114.713 444.634 114.9 444.105 114.885C443.577 114.869 443.074 114.652 442.7 114.278C442.326 113.904 442.109 113.402 442.093 112.873C442.078 112.344 442.265 111.829 442.616 111.434L477.142 73.3701C477.494 72.9874 477.689 72.4867 477.689 71.9671C477.689 71.4474 477.494 70.9468 477.142 70.5641L442.616 32.5001C442.265 32.1047 442.078 31.59 442.093 31.0613C442.109 30.5326 442.326 30.0298 442.7 29.6558C443.074 29.2818 443.577 29.0648 444.105 29.0492C444.634 29.0337 445.149 29.2207 445.544 29.5721L483.608 64.0981C483.991 64.4496 484.491 64.6446 485.011 64.6446C485.531 64.6446 486.031 64.4496 486.414 64.0981Z" fill="#0F172D"/>
<path d="M779.214 64.0981L817.278 29.5721C817.673 29.2207 818.188 29.0337 818.717 29.0492C819.246 29.0648 819.748 29.2818 820.122 29.6558C820.496 30.0298 820.713 30.5326 820.729 31.0613C820.744 31.59 820.557 32.1047 820.206 32.5001L785.68 70.5641C785.329 70.9468 785.133 71.4474 785.133 71.9671C785.133 72.4867 785.329 72.9874 785.68 73.3701L820.206 111.434C820.557 111.829 820.744 112.344 820.729 112.873C820.713 113.402 820.496 113.904 820.122 114.278C819.748 114.652 819.246 114.869 818.717 114.885C818.188 114.9 817.673 114.713 817.278 114.362L779.214 79.8361C778.831 79.4846 778.331 79.2895 777.811 79.2895C777.291 79.2895 776.791 79.4846 776.408 79.8361L738.344 114.362C737.949 114.713 737.434 114.9 736.905 114.885C736.377 114.869 735.874 114.652 735.5 114.278C735.126 113.904 734.909 113.402 734.893 112.873C734.878 112.344 735.065 111.829 735.416 111.434L769.942 73.3701C770.294 72.9874 770.489 72.4867 770.489 71.9671C770.489 71.4474 770.294 70.9468 769.942 70.5641L735.416 32.5001C735.065 32.1047 734.878 31.59 734.893 31.0613C734.909 30.5326 735.126 30.0298 735.5 29.6558C735.874 29.2818 736.377 29.0648 736.905 29.0492C737.434 29.0337 737.949 29.2207 738.344 29.5721L776.408 64.0981C776.791 64.4496 777.291 64.6446 777.811 64.6446C778.331 64.6446 778.831 64.4496 779.214 64.0981Z" fill="#0F172D"/>
<path d="M1072.01 64.0981L1110.08 29.5721C1110.47 29.2207 1110.99 29.0337 1111.52 29.0492C1112.05 29.0648 1112.55 29.2818 1112.92 29.6558C1113.3 30.0298 1113.51 30.5326 1113.53 31.0613C1113.54 31.59 1113.36 32.1047 1113.01 32.5001L1078.48 70.5641C1078.13 70.9468 1077.93 71.4474 1077.93 71.9671C1077.93 72.4867 1078.13 72.9874 1078.48 73.3701L1113.01 111.434C1113.36 111.829 1113.54 112.344 1113.53 112.873C1113.51 113.402 1113.3 113.904 1112.92 114.278C1112.55 114.652 1112.05 114.869 1111.52 114.885C1110.99 114.9 1110.47 114.713 1110.08 114.362L1072.01 79.8361C1071.63 79.4846 1071.13 79.2895 1070.61 79.2895C1070.09 79.2895 1069.59 79.4846 1069.21 79.8361L1031.14 114.362C1030.75 114.713 1030.23 114.9 1029.71 114.885C1029.18 114.869 1028.67 114.652 1028.3 114.278C1027.93 113.904 1027.71 113.402 1027.69 112.873C1027.68 112.344 1027.86 111.829 1028.22 111.434L1062.74 73.3701C1063.09 72.9874 1063.29 72.4867 1063.29 71.9671C1063.29 71.4474 1063.09 70.9468 1062.74 70.5641L1028.22 32.5001C1027.86 32.1047 1027.68 31.59 1027.69 31.0613C1027.71 30.5326 1027.93 30.0298 1028.3 29.6558C1028.67 29.2818 1029.18 29.0648 1029.71 29.0492C1030.23 29.0337 1030.75 29.2207 1031.14 29.5721L1069.21 64.0981C1069.59 64.4496 1070.09 64.6446 1070.61 64.6446C1071.13 64.6446 1071.63 64.4496 1072.01 64.0981Z" fill="#0F172D"/>
<path d="M47.214 210.498L85.278 175.972C85.6734 175.621 86.1881 175.434 86.7168 175.449C87.2455 175.465 87.7483 175.682 88.1223 176.056C88.4963 176.43 88.7133 176.933 88.7289 177.461C88.7444 177.99 88.5574 178.505 88.206 178.9L53.68 216.964C53.3285 217.347 53.1334 217.847 53.1334 218.367C53.1334 218.887 53.3285 219.387 53.68 219.77L88.206 257.834C88.5574 258.229 88.7444 258.744 88.7289 259.273C88.7133 259.801 88.4963 260.304 88.1223 260.678C87.7483 261.052 87.2455 261.269 86.7168 261.285C86.1881 261.3 85.6734 261.113 85.278 260.762L47.214 226.236C46.8313 225.884 46.3306 225.689 45.811 225.689C45.2914 225.689 44.7907 225.884 44.408 226.236L6.34401 260.762C5.94864 261.113 5.43396 261.3 4.90525 261.285C4.37654 261.269 3.87375 261.052 3.49973 260.678C3.12572 260.304 2.90874 259.801 2.89317 259.273C2.87761 258.744 3.06464 258.229 3.41601 257.834L37.942 219.77C38.2935 219.387 38.4886 218.887 38.4886 218.367C38.4886 217.847 38.2935 217.347 37.942 216.964L3.41601 178.9C3.06464 178.505 2.87761 177.99 2.89317 177.461C2.90874 176.933 3.12572 176.43 3.49973 176.056C3.87375 175.682 4.37654 175.465 4.90525 175.449C5.43396 175.434 5.94864 175.621 6.34401 175.972L44.408 210.498C44.7907 210.849 45.2914 211.045 45.811 211.045C46.3306 211.045 46.8313 210.849 47.214 210.498Z" fill="#0F172D"/>
<path d="M340.014 210.498L378.078 175.972C378.473 175.621 378.988 175.434 379.517 175.449C380.045 175.465 380.548 175.682 380.922 176.056C381.296 176.43 381.513 176.933 381.529 177.461C381.544 177.99 381.357 178.505 381.006 178.9L346.48 216.964C346.128 217.347 345.933 217.847 345.933 218.367C345.933 218.887 346.128 219.387 346.48 219.77L381.006 257.834C381.357 258.229 381.544 258.744 381.529 259.273C381.513 259.801 381.296 260.304 380.922 260.678C380.548 261.052 380.045 261.269 379.517 261.285C378.988 261.3 378.473 261.113 378.078 260.762L340.014 226.236C339.631 225.884 339.131 225.689 338.611 225.689C338.091 225.689 337.591 225.884 337.208 226.236L299.144 260.762C298.749 261.113 298.234 261.3 297.705 261.285C297.177 261.269 296.674 261.052 296.3 260.678C295.926 260.304 295.709 259.801 295.693 259.273C295.678 258.744 295.865 258.229 296.216 257.834L330.742 219.77C331.094 219.387 331.289 218.887 331.289 218.367C331.289 217.847 331.094 217.347 330.742 216.964L296.216 178.9C295.865 178.505 295.678 177.99 295.693 177.461C295.709 176.933 295.926 176.43 296.3 176.056C296.674 175.682 297.177 175.465 297.705 175.449C298.234 175.434 298.749 175.621 299.144 175.972L337.208 210.498C337.591 210.849 338.091 211.045 338.611 211.045C339.131 211.045 339.631 210.849 340.014 210.498Z" fill="#0F172D"/>
<path d="M632.814 210.498L670.878 175.972C671.273 175.621 671.788 175.434 672.317 175.449C672.845 175.465 673.348 175.682 673.722 176.056C674.096 176.43 674.313 176.933 674.329 177.461C674.344 177.99 674.157 178.505 673.806 178.9L639.28 216.964C638.929 217.347 638.734 217.847 638.734 218.367C638.734 218.887 638.929 219.387 639.28 219.77L673.806 257.834C674.157 258.229 674.344 258.744 674.329 259.273C674.313 259.801 674.096 260.304 673.722 260.678C673.348 261.052 672.845 261.269 672.317 261.285C671.788 261.3 671.273 261.113 670.878 260.762L632.814 226.236C632.431 225.884 631.931 225.689 631.411 225.689C630.891 225.689 630.391 225.884 630.008 226.236L591.944 260.762C591.549 261.113 591.034 261.3 590.505 261.285C589.977 261.269 589.474 261.052 589.1 260.678C588.726 260.304 588.509 259.801 588.493 259.273C588.478 258.744 588.665 258.229 589.016 257.834L623.542 219.77C623.894 219.387 624.089 218.887 624.089 218.367C624.089 217.847 623.894 217.347 623.542 216.964L589.016 178.9C588.665 178.505 588.478 177.99 588.493 177.461C588.509 176.933 588.726 176.43 589.1 176.056C589.474 175.682 589.977 175.465 590.505 175.449C591.034 175.434 591.549 175.621 591.944 175.972L630.008 210.498C630.391 210.849 630.891 211.045 631.411 211.045C631.931 211.045 632.431 210.849 632.814 210.498Z" fill="#0F172D"/>
<path d="M925.614 210.498L963.678 175.972C964.073 175.621 964.588 175.434 965.117 175.449C965.645 175.465 966.148 175.682 966.522 176.056C966.896 176.43 967.113 176.933 967.129 177.461C967.144 177.99 966.957 178.505 966.606 178.9L932.08 216.964C931.728 217.347 931.533 217.847 931.533 218.367C931.533 218.887 931.728 219.387 932.08 219.77L966.606 257.834C966.957 258.229 967.144 258.744 967.129 259.273C967.113 259.801 966.896 260.304 966.522 260.678C966.148 261.052 965.645 261.269 965.117 261.285C964.588 261.3 964.073 261.113 963.678 260.762L925.614 226.236C925.231 225.884 924.731 225.689 924.211 225.689C923.691 225.689 923.191 225.884 922.808 226.236L884.744 260.762C884.349 261.113 883.834 261.3 883.305 261.285C882.777 261.269 882.274 261.052 881.9 260.678C881.526 260.304 881.309 259.801 881.293 259.273C881.278 258.744 881.465 258.229 881.816 257.834L916.342 219.77C916.693 219.387 916.889 218.887 916.889 218.367C916.889 217.847 916.693 217.347 916.342 216.964L881.816 178.9C881.465 178.505 881.278 177.99 881.293 177.461C881.309 176.933 881.526 176.43 881.9 176.056C882.274 175.682 882.777 175.465 883.305 175.449C883.834 175.434 884.349 175.621 884.744 175.972L922.808 210.498C923.191 210.849 923.691 211.045 924.211 211.045C924.731 211.045 925.231 210.849 925.614 210.498Z" fill="#0F172D"/>
<path d="M1220 215.012V221.966L1180.17 260.579C1179.51 261.206 1178.65 261.576 1177.74 261.621C1176.83 261.666 1175.94 261.383 1175.23 260.823L1173.52 259.42C1172.7 258.769 1172.66 258.078 1173.4 257.346L1210.3 220.38C1210.79 219.895 1211.06 219.233 1211.06 218.537C1211.06 217.841 1210.79 217.167 1210.3 216.659L1174.62 181.096C1174.28 180.756 1174.01 180.346 1173.84 179.895C1173.68 179.443 1173.61 178.961 1173.64 178.481C1173.68 178.001 1173.81 177.533 1174.05 177.111C1174.28 176.689 1174.6 176.321 1174.98 176.033L1176.32 175.118C1176.74 174.815 1177.24 174.666 1177.75 174.7C1178.25 174.733 1178.72 174.947 1179.07 175.301L1220 215.012Z" fill="#0F172D"/>
<path d="M193.614 356.898L231.678 322.372C232.073 322.02 232.588 321.833 233.117 321.849C233.646 321.865 234.148 322.082 234.522 322.456C234.896 322.83 235.113 323.332 235.129 323.861C235.144 324.39 234.957 324.905 234.606 325.3L200.08 363.364C199.729 363.747 199.533 364.247 199.533 364.767C199.533 365.287 199.729 365.787 200.08 366.17L234.606 404.234C234.957 404.629 235.144 405.144 235.129 405.673C235.113 406.201 234.896 406.704 234.522 407.078C234.148 407.452 233.646 407.669 233.117 407.685C232.588 407.7 232.073 407.513 231.678 407.162L193.614 372.636C193.231 372.284 192.731 372.089 192.211 372.089C191.691 372.089 191.191 372.284 190.808 372.636L152.744 407.162C152.349 407.513 151.834 407.7 151.305 407.685C150.777 407.669 150.274 407.452 149.9 407.078C149.526 406.704 149.309 406.201 149.293 405.673C149.278 405.144 149.465 404.629 149.816 404.234L184.342 366.17C184.694 365.787 184.889 365.287 184.889 364.767C184.889 364.247 184.694 363.747 184.342 363.364L149.816 325.3C149.465 324.905 149.278 324.39 149.293 323.861C149.309 323.332 149.526 322.83 149.9 322.456C150.274 322.082 150.777 321.865 151.305 321.849C151.834 321.833 152.349 322.02 152.744 322.372L190.808 356.898C191.191 357.249 191.691 357.444 192.211 357.444C192.731 357.444 193.231 357.249 193.614 356.898Z" fill="#0F172D"/>
<path d="M486.414 356.898L524.478 322.372C524.873 322.02 525.388 321.833 525.917 321.849C526.445 321.865 526.948 322.082 527.322 322.456C527.696 322.83 527.913 323.332 527.929 323.861C527.944 324.39 527.757 324.905 527.406 325.3L492.88 363.364C492.529 363.747 492.333 364.247 492.333 364.767C492.333 365.287 492.529 365.787 492.88 366.17L527.406 404.234C527.757 404.629 527.944 405.144 527.929 405.673C527.913 406.201 527.696 406.704 527.322 407.078C526.948 407.452 526.445 407.669 525.917 407.685C525.388 407.7 524.873 407.513 524.478 407.162L486.414 372.636C486.031 372.284 485.531 372.089 485.011 372.089C484.491 372.089 483.991 372.284 483.608 372.636L445.544 407.162C445.149 407.513 444.634 407.7 444.105 407.685C443.577 407.669 443.074 407.452 442.7 407.078C442.326 406.704 442.109 406.201 442.093 405.673C442.078 405.144 442.265 404.629 442.616 404.234L477.142 366.17C477.494 365.787 477.689 365.287 477.689 364.767C477.689 364.247 477.494 363.747 477.142 363.364L442.616 325.3C442.265 324.905 442.078 324.39 442.093 323.861C442.109 323.332 442.326 322.83 442.7 322.456C443.074 322.082 443.577 321.865 444.105 321.849C444.634 321.833 445.149 322.02 445.544 322.372L483.608 356.898C483.991 357.249 484.491 357.444 485.011 357.444C485.531 357.444 486.031 357.249 486.414 356.898Z" fill="#0F172D"/>
<path d="M779.214 356.898L817.278 322.372C817.673 322.02 818.188 321.833 818.717 321.849C819.246 321.865 819.748 322.082 820.122 322.456C820.496 322.83 820.713 323.332 820.729 323.861C820.744 324.39 820.557 324.905 820.206 325.3L785.68 363.364C785.329 363.747 785.133 364.247 785.133 364.767C785.133 365.287 785.329 365.787 785.68 366.17L820.206 404.234C820.557 404.629 820.744 405.144 820.729 405.673C820.713 406.201 820.496 406.704 820.122 407.078C819.748 407.452 819.246 407.669 818.717 407.685C818.188 407.7 817.673 407.513 817.278 407.162L779.214 372.636C778.831 372.284 778.331 372.089 777.811 372.089C777.291 372.089 776.791 372.284 776.408 372.636L738.344 407.162C737.949 407.513 737.434 407.7 736.905 407.685C736.377 407.669 735.874 407.452 735.5 407.078C735.126 406.704 734.909 406.201 734.893 405.673C734.878 405.144 735.065 404.629 735.416 404.234L769.942 366.17C770.294 365.787 770.489 365.287 770.489 364.767C770.489 364.247 770.294 363.747 769.942 363.364L735.416 325.3C735.065 324.905 734.878 324.39 734.893 323.861C734.909 323.332 735.126 322.83 735.5 322.456C735.874 322.082 736.377 321.865 736.905 321.849C737.434 321.833 737.949 322.02 738.344 322.372L776.408 356.898C776.791 357.249 777.291 357.444 777.811 357.444C778.331 357.444 778.831 357.249 779.214 356.898Z" fill="#0F172D"/>
<path d="M1072.01 356.898L1110.08 322.372C1110.47 322.02 1110.99 321.833 1111.52 321.849C1112.05 321.865 1112.55 322.082 1112.92 322.456C1113.3 322.83 1113.51 323.332 1113.53 323.861C1113.54 324.39 1113.36 324.905 1113.01 325.3L1078.48 363.364C1078.13 363.747 1077.93 364.247 1077.93 364.767C1077.93 365.287 1078.13 365.787 1078.48 366.17L1113.01 404.234C1113.36 404.629 1113.54 405.144 1113.53 405.673C1113.51 406.201 1113.3 406.704 1112.92 407.078C1112.55 407.452 1112.05 407.669 1111.52 407.685C1110.99 407.7 1110.47 407.513 1110.08 407.162L1072.01 372.636C1071.63 372.284 1071.13 372.089 1070.61 372.089C1070.09 372.089 1069.59 372.284 1069.21 372.636L1031.14 407.162C1030.75 407.513 1030.23 407.7 1029.71 407.685C1029.18 407.669 1028.67 407.452 1028.3 407.078C1027.93 406.704 1027.71 406.201 1027.69 405.673C1027.68 405.144 1027.86 404.629 1028.22 404.234L1062.74 366.17C1063.09 365.787 1063.29 365.287 1063.29 364.767C1063.29 364.247 1063.09 363.747 1062.74 363.364L1028.22 325.3C1027.86 324.905 1027.68 324.39 1027.69 323.861C1027.71 323.332 1027.93 322.83 1028.3 322.456C1028.67 322.082 1029.18 321.865 1029.71 321.849C1030.23 321.833 1030.75 322.02 1031.14 322.372L1069.21 356.898C1069.59 357.249 1070.09 357.444 1070.61 357.444C1071.13 357.444 1071.63 357.249 1072.01 356.898Z" fill="#0F172D"/>
<path d="M47.214 503.298L85.278 468.772C85.6734 468.421 86.1881 468.234 86.7168 468.249C87.2455 468.265 87.7483 468.482 88.1223 468.856C88.4963 469.23 88.7133 469.733 88.7289 470.261C88.7444 470.79 88.5574 471.305 88.206 471.7L53.68 509.764C53.3285 510.147 53.1334 510.647 53.1334 511.167C53.1334 511.687 53.3285 512.187 53.68 512.57L88.206 550.634C88.5574 551.029 88.7444 551.544 88.7289 552.073C88.7133 552.602 88.4963 553.104 88.1223 553.478C87.7483 553.852 87.2455 554.069 86.7168 554.085C86.1881 554.1 85.6734 553.913 85.278 553.562L47.214 519.036C46.8313 518.685 46.3306 518.489 45.811 518.489C45.2914 518.489 44.7907 518.685 44.408 519.036L6.34401 553.562C5.94864 553.913 5.43396 554.1 4.90525 554.085C4.37654 554.069 3.87375 553.852 3.49973 553.478C3.12572 553.104 2.90874 552.602 2.89317 552.073C2.87761 551.544 3.06464 551.029 3.41601 550.634L37.942 512.57C38.2935 512.187 38.4886 511.687 38.4886 511.167C38.4886 510.647 38.2935 510.147 37.942 509.764L3.41601 471.7C3.06464 471.305 2.87761 470.79 2.89317 470.261C2.90874 469.733 3.12572 469.23 3.49973 468.856C3.87375 468.482 4.37654 468.265 4.90525 468.249C5.43396 468.234 5.94864 468.421 6.34401 468.772L44.408 503.298C44.7907 503.65 45.2914 503.845 45.811 503.845C46.3306 503.845 46.8313 503.65 47.214 503.298Z" fill="#0F172D"/>
<path d="M340.014 503.298L378.078 468.772C378.473 468.421 378.988 468.234 379.517 468.249C380.045 468.265 380.548 468.482 380.922 468.856C381.296 469.23 381.513 469.733 381.529 470.261C381.544 470.79 381.357 471.305 381.006 471.7L346.48 509.764C346.128 510.147 345.933 510.647 345.933 511.167C345.933 511.687 346.128 512.187 346.48 512.57L381.006 550.634C381.357 551.029 381.544 551.544 381.529 552.073C381.513 552.602 381.296 553.104 380.922 553.478C380.548 553.852 380.045 554.069 379.517 554.085C378.988 554.1 378.473 553.913 378.078 553.562L340.014 519.036C339.631 518.685 339.131 518.489 338.611 518.489C338.091 518.489 337.591 518.685 337.208 519.036L299.144 553.562C298.749 553.913 298.234 554.1 297.705 554.085C297.177 554.069 296.674 553.852 296.3 553.478C295.926 553.104 295.709 552.602 295.693 552.073C295.678 551.544 295.865 551.029 296.216 550.634L330.742 512.57C331.094 512.187 331.289 511.687 331.289 511.167C331.289 510.647 331.094 510.147 330.742 509.764L296.216 471.7C295.865 471.305 295.678 470.79 295.693 470.261C295.709 469.733 295.926 469.23 296.3 468.856C296.674 468.482 297.177 468.265 297.705 468.249C298.234 468.234 298.749 468.421 299.144 468.772L337.208 503.298C337.591 503.65 338.091 503.845 338.611 503.845C339.131 503.845 339.631 503.65 340.014 503.298Z" fill="#0F172D"/>
<path d="M632.814 503.298L670.878 468.772C671.273 468.421 671.788 468.234 672.317 468.249C672.845 468.265 673.348 468.482 673.722 468.856C674.096 469.23 674.313 469.733 674.329 470.261C674.344 470.79 674.157 471.305 673.806 471.7L639.28 509.764C638.929 510.147 638.734 510.647 638.734 511.167C638.734 511.687 638.929 512.187 639.28 512.57L673.806 550.634C674.157 551.029 674.344 551.544 674.329 552.073C674.313 552.602 674.096 553.104 673.722 553.478C673.348 553.852 672.845 554.069 672.317 554.085C671.788 554.1 671.273 553.913 670.878 553.562L632.814 519.036C632.431 518.685 631.931 518.489 631.411 518.489C630.891 518.489 630.391 518.685 630.008 519.036L591.944 553.562C591.549 553.913 591.034 554.1 590.505 554.085C589.977 554.069 589.474 553.852 589.1 553.478C588.726 553.104 588.509 552.602 588.493 552.073C588.478 551.544 588.665 551.029 589.016 550.634L623.542 512.57C623.894 512.187 624.089 511.687 624.089 511.167C624.089 510.647 623.894 510.147 623.542 509.764L589.016 471.7C588.665 471.305 588.478 470.79 588.493 470.261C588.509 469.733 588.726 469.23 589.1 468.856C589.474 468.482 589.977 468.265 590.505 468.249C591.034 468.234 591.549 468.421 591.944 468.772L630.008 503.298C630.391 503.65 630.891 503.845 631.411 503.845C631.931 503.845 632.431 503.65 632.814 503.298Z" fill="#0F172D"/>
<path d="M925.614 503.298L963.678 468.772C964.073 468.421 964.588 468.234 965.117 468.249C965.645 468.265 966.148 468.482 966.522 468.856C966.896 469.23 967.113 469.733 967.129 470.261C967.144 470.79 966.957 471.305 966.606 471.7L932.08 509.764C931.728 510.147 931.533 510.647 931.533 511.167C931.533 511.687 931.728 512.187 932.08 512.57L966.606 550.634C966.957 551.029 967.144 551.544 967.129 552.073C967.113 552.602 966.896 553.104 966.522 553.478C966.148 553.852 965.645 554.069 965.117 554.085C964.588 554.1 964.073 553.913 963.678 553.562L925.614 519.036C925.231 518.685 924.731 518.489 924.211 518.489C923.691 518.489 923.191 518.685 922.808 519.036L884.744 553.562C884.349 553.913 883.834 554.1 883.305 554.085C882.777 554.069 882.274 553.852 881.9 553.478C881.526 553.104 881.309 552.602 881.293 552.073C881.278 551.544 881.465 551.029 881.816 550.634L916.342 512.57C916.693 512.187 916.889 511.687 916.889 511.167C916.889 510.647 916.693 510.147 916.342 509.764L881.816 471.7C881.465 471.305 881.278 470.79 881.293 470.261C881.309 469.733 881.526 469.23 881.9 468.856C882.274 468.482 882.777 468.265 883.305 468.249C883.834 468.234 884.349 468.421 884.744 468.772L922.808 503.298C923.191 503.65 923.691 503.845 924.211 503.845C924.731 503.845 925.231 503.65 925.614 503.298Z" fill="#0F172D"/>
<path d="M1220 507.812V514.766L1180.17 553.379C1179.52 554.018 1178.65 554.396 1177.74 554.441C1176.83 554.486 1175.94 554.195 1175.23 553.623L1173.52 552.22C1172.7 551.569 1172.66 550.878 1173.4 550.146L1210.3 513.18C1210.79 512.695 1211.06 512.033 1211.06 511.337C1211.06 510.641 1210.79 509.967 1210.3 509.459L1174.62 473.896C1174.28 473.556 1174.01 473.146 1173.84 472.695C1173.68 472.243 1173.61 471.761 1173.64 471.281C1173.68 470.801 1173.81 470.333 1174.05 469.911C1174.28 469.489 1174.6 469.121 1174.98 468.833L1176.32 467.918C1176.74 467.615 1177.24 467.466 1177.75 467.5C1178.25 467.533 1178.72 467.747 1179.07 468.101L1220 507.812Z" fill="#0F172D"/>
<path d="M193.614 649.698L231.678 615.172C232.073 614.821 232.588 614.634 233.117 614.649C233.646 614.665 234.148 614.882 234.522 615.256C234.896 615.63 235.113 616.132 235.129 616.661C235.144 617.19 234.957 617.705 234.606 618.1L200.08 656.164C199.729 656.547 199.533 657.047 199.533 657.567C199.533 658.087 199.729 658.587 200.08 658.97L234.606 697.034C234.957 697.429 235.144 697.944 235.129 698.473C235.113 699.001 234.896 699.504 234.522 699.878C234.148 700.252 233.646 700.469 233.117 700.485C232.588 700.5 232.073 700.313 231.678 699.962L193.614 665.436C193.231 665.084 192.731 664.889 192.211 664.889C191.691 664.889 191.191 665.084 190.808 665.436L152.744 699.962C152.349 700.313 151.834 700.5 151.305 700.485C150.777 700.469 150.274 700.252 149.9 699.878C149.526 699.504 149.309 699.001 149.293 698.473C149.278 697.944 149.465 697.429 149.816 697.034L184.342 658.97C184.694 658.587 184.889 658.087 184.889 657.567C184.889 657.047 184.694 656.547 184.342 656.164L149.816 618.1C149.465 617.705 149.278 617.19 149.293 616.661C149.309 616.132 149.526 615.63 149.9 615.256C150.274 614.882 150.777 614.665 151.305 614.649C151.834 614.634 152.349 614.821 152.744 615.172L190.808 649.698C191.191 650.049 191.691 650.244 192.211 650.244C192.731 650.244 193.231 650.049 193.614 649.698Z" fill="#0F172D"/>
<path d="M486.414 649.698L524.478 615.172C524.873 614.821 525.388 614.634 525.917 614.649C526.445 614.665 526.948 614.882 527.322 615.256C527.696 615.63 527.913 616.132 527.929 616.661C527.944 617.19 527.757 617.705 527.406 618.1L492.88 656.164C492.529 656.547 492.333 657.047 492.333 657.567C492.333 658.087 492.529 658.587 492.88 658.97L527.406 697.034C527.757 697.429 527.944 697.944 527.929 698.473C527.913 699.001 527.696 699.504 527.322 699.878C526.948 700.252 526.445 700.469 525.917 700.485C525.388 700.5 524.873 700.313 524.478 699.962L486.414 665.436C486.031 665.084 485.531 664.889 485.011 664.889C484.491 664.889 483.991 665.084 483.608 665.436L445.544 699.962C445.149 700.313 444.634 700.5 444.105 700.485C443.577 700.469 443.074 700.252 442.7 699.878C442.326 699.504 442.109 699.001 442.093 698.473C442.078 697.944 442.265 697.429 442.616 697.034L477.142 658.97C477.494 658.587 477.689 658.087 477.689 657.567C477.689 657.047 477.494 656.547 477.142 656.164L442.616 618.1C442.265 617.705 442.078 617.19 442.093 616.661C442.109 616.132 442.326 615.63 442.7 615.256C443.074 614.882 443.577 614.665 444.105 614.649C444.634 614.634 445.149 614.821 445.544 615.172L483.608 649.698C483.991 650.049 484.491 650.244 485.011 650.244C485.531 650.244 486.031 650.049 486.414 649.698Z" fill="#0F172D"/>
<path d="M779.214 649.698L817.278 615.172C817.673 614.821 818.188 614.634 818.717 614.649C819.246 614.665 819.748 614.882 820.122 615.256C820.496 615.63 820.713 616.132 820.729 616.661C820.744 617.19 820.557 617.705 820.206 618.1L785.68 656.164C785.329 656.547 785.133 657.047 785.133 657.567C785.133 658.087 785.329 658.587 785.68 658.97L820.206 697.034C820.557 697.429 820.744 697.944 820.729 698.473C820.713 699.001 820.496 699.504 820.122 699.878C819.748 700.252 819.246 700.469 818.717 700.485C818.188 700.5 817.673 700.313 817.278 699.962L779.214 665.436C778.831 665.084 778.331 664.889 777.811 664.889C777.291 664.889 776.791 665.084 776.408 665.436L738.344 699.962C737.949 700.313 737.434 700.5 736.905 700.485C736.377 700.469 735.874 700.252 735.5 699.878C735.126 699.504 734.909 699.001 734.893 698.473C734.878 697.944 735.065 697.429 735.416 697.034L769.942 658.97C770.294 658.587 770.489 658.087 770.489 657.567C770.489 657.047 770.294 656.547 769.942 656.164L735.416 618.1C735.065 617.705 734.878 617.19 734.893 616.661C734.909 616.132 735.126 615.63 735.5 615.256C735.874 614.882 736.377 614.665 736.905 614.649C737.434 614.634 737.949 614.821 738.344 615.172L776.408 649.698C776.791 650.049 777.291 650.244 777.811 650.244C778.331 650.244 778.831 650.049 779.214 649.698Z" fill="#0F172D"/>
<path d="M1072.01 649.698L1110.08 615.172C1110.47 614.821 1110.99 614.634 1111.52 614.649C1112.05 614.665 1112.55 614.882 1112.92 615.256C1113.3 615.63 1113.51 616.132 1113.53 616.661C1113.54 617.19 1113.36 617.705 1113.01 618.1L1078.48 656.164C1078.13 656.547 1077.93 657.047 1077.93 657.567C1077.93 658.087 1078.13 658.587 1078.48 658.97L1113.01 697.034C1113.36 697.429 1113.54 697.944 1113.53 698.473C1113.51 699.001 1113.3 699.504 1112.92 699.878C1112.55 700.252 1112.05 700.469 1111.52 700.485C1110.99 700.5 1110.47 700.313 1110.08 699.962L1072.01 665.436C1071.63 665.084 1071.13 664.889 1070.61 664.889C1070.09 664.889 1069.59 665.084 1069.21 665.436L1031.14 699.962C1030.75 700.313 1030.23 700.5 1029.71 700.485C1029.18 700.469 1028.67 700.252 1028.3 699.878C1027.93 699.504 1027.71 699.001 1027.69 698.473C1027.68 697.944 1027.86 697.429 1028.22 697.034L1062.74 658.97C1063.09 658.587 1063.29 658.087 1063.29 657.567C1063.29 657.047 1063.09 656.547 1062.74 656.164L1028.22 618.1C1027.86 617.705 1027.68 617.19 1027.69 616.661C1027.71 616.132 1027.93 615.63 1028.3 615.256C1028.67 614.882 1029.18 614.665 1029.71 614.649C1030.23 614.634 1030.75 614.821 1031.14 615.172L1069.21 649.698C1069.59 650.049 1070.09 650.244 1070.61 650.244C1071.13 650.244 1071.63 650.049 1072.01 649.698Z" fill="#0F172D"/>
</g>
<defs>
<clipPath id="clip0_525_330">
<rect width="1220" height="1220" fill="white" transform="translate(0 -120)"/>
</clipPath>
</defs>
</svg>
