<svg width="33" height="32" viewBox="0 0 33 32" fill="none" xmlns="http://www.w3.org/2000/svg">
<path d="M16.5 2.6665C14.749 2.6665 13.0152 3.01138 11.3976 3.68144C9.77988 4.35151 8.31002 5.33363 7.07191 6.57175C4.57142 9.07223 3.16666 12.4636 3.16666 15.9998C3.16666 21.8932 6.99333 26.8932 12.2867 28.6665C12.9533 28.7732 13.1667 28.3598 13.1667 27.9998V25.7465C9.47333 26.5465 8.68666 23.9598 8.68666 23.9598C8.07333 22.4132 7.20666 21.9998 7.20666 21.9998C5.99333 21.1732 7.3 21.1998 7.3 21.1998C8.63333 21.2932 9.34 22.5732 9.34 22.5732C10.5 24.5998 12.46 23.9998 13.22 23.6798C13.34 22.8132 13.6867 22.2265 14.06 21.8932C11.1 21.5598 7.99333 20.4132 7.99333 15.3332C7.99333 13.8532 8.5 12.6665 9.36666 11.7198C9.23333 11.3865 8.76666 9.99984 9.5 8.19984C9.5 8.19984 10.62 7.83984 13.1667 9.55984C14.22 9.2665 15.3667 9.11984 16.5 9.11984C17.6333 9.11984 18.78 9.2665 19.8333 9.55984C22.38 7.83984 23.5 8.19984 23.5 8.19984C24.2333 9.99984 23.7667 11.3865 23.6333 11.7198C24.5 12.6665 25.0067 13.8532 25.0067 15.3332C25.0067 20.4265 21.8867 21.5465 18.9133 21.8798C19.3933 22.2932 19.8333 23.1065 19.8333 24.3465V27.9998C19.8333 28.3598 20.0467 28.7865 20.7267 28.6665C26.02 26.8798 29.8333 21.8932 29.8333 15.9998C29.8333 14.2489 29.4885 12.5151 28.8184 10.8974C28.1483 9.27972 27.1662 7.80986 25.9281 6.57175C24.69 5.33363 23.2201 4.35151 21.6024 3.68144C19.9848 3.01138 18.251 2.6665 16.5 2.6665Z" fill="white"/>
</svg>
