<svg width="22" height="22" viewBox="0 0 22 22" fill="none" xmlns="http://www.w3.org/2000/svg">
<g id="Group">
<path id="Vector" d="M6.97536 8.10078C6.71415 8.10078 6.46365 8.16726 6.27894 8.28559C6.09424 8.40393 5.99048 8.56442 5.99048 8.73177C5.99048 8.89912 6.09424 9.05962 6.27894 9.17795C6.46365 9.29629 6.71415 9.36277 6.97536 9.36277H14.8544C15.1156 9.36277 15.3661 9.29629 15.5509 9.17795C15.7356 9.05962 15.8393 8.89912 15.8393 8.73177C15.8393 8.56442 15.7356 8.40393 15.5509 8.28559C15.3661 8.16726 15.1156 8.10078 14.8544 8.10078H6.97536ZM6.97536 13.1702C6.71415 13.1702 6.46365 13.2367 6.27894 13.355C6.09424 13.4733 5.99048 13.6338 5.99048 13.8012C5.99048 13.9685 6.09424 14.129 6.27894 14.2474C6.46365 14.3657 6.71415 14.4322 6.97536 14.4322H14.8544C15.1156 14.4322 15.3661 14.3657 15.5509 14.2474C15.7356 14.129 15.8393 13.9685 15.8393 13.8012C15.8393 13.6338 15.7356 13.4733 15.5509 13.355C15.3661 13.2367 15.1156 13.1702 14.8544 13.1702H6.97536Z" fill="white"/>
<path id="Vector_2" fill-rule="evenodd" clip-rule="evenodd" d="M22 11C22 17.0753 17.0753 22 11 22C4.9247 22 0 17.0753 0 11C0 4.9247 4.9247 0 11 0C17.0753 0 22 4.9247 22 11ZM19.8 11C19.8 13.3339 18.8729 15.5722 17.2225 17.2225C15.5722 18.8729 13.3339 19.8 11 19.8C8.66609 19.8 6.42778 18.8729 4.77746 17.2225C3.12714 15.5722 2.2 13.3339 2.2 11C2.2 8.66609 3.12714 6.42778 4.77746 4.77746C6.42778 3.12714 8.66609 2.2 11 2.2C13.3339 2.2 15.5722 3.12714 17.2225 4.77746C18.8729 6.42778 19.8 8.66609 19.8 11Z" fill="white"/>
</g>
</svg>
