<svg width="44" height="45" viewBox="0 0 44 45" fill="none" xmlns="http://www.w3.org/2000/svg">
<path id="Vector" fill-rule="evenodd" clip-rule="evenodd" d="M44 22.5C44 34.6506 34.1506 44.5 22 44.5C9.8494 44.5 0 34.6506 0 22.5C0 10.3494 9.8494 0.5 22 0.5C34.1506 0.5 44 10.3494 44 22.5ZM39.6 22.5C39.6 27.1678 37.7457 31.6444 34.4451 34.9451C31.1444 38.2457 26.6678 40.1 22 40.1C17.3322 40.1 12.8556 38.2457 9.55492 34.9451C6.25428 31.6444 4.4 27.1678 4.4 22.5C4.4 17.8322 6.25428 13.3556 9.55492 10.0549C12.8556 6.75428 17.3322 4.9 22 4.9C26.6678 4.9 31.1444 6.75428 34.4451 10.0549C37.7457 13.3556 39.6 17.8322 39.6 22.5Z" fill="white"/>
</svg>
