<svg width="391" height="22" viewBox="0 0 391 22" fill="none" xmlns="http://www.w3.org/2000/svg">
<path d="M0.380286 10.708C0.380286 14.9163 3.79175 18.3277 8 18.3277C12.2083 18.3277 15.6197 14.9163 15.6197 10.708C15.6197 6.49976 12.2083 3.08829 8 3.08829C3.79175 3.08829 0.380286 6.49976 0.380286 10.708ZM389.996 11.7182C390.554 11.1603 390.554 10.2557 389.996 9.69777L380.904 0.605598C380.346 0.047658 379.441 0.047658 378.883 0.605598C378.325 1.16354 378.325 2.06814 378.883 2.62608L386.965 10.708L378.883 18.7899C378.325 19.3479 378.325 20.2525 378.883 20.8104C379.441 21.3684 380.346 21.3684 380.904 20.8104L389.996 11.7182ZM8 12.1367H388.986V9.27931H8V12.1367Z" fill="white"/>
</svg>
