<svg width="14" height="106" viewBox="0 0 14 106" fill="none" xmlns="http://www.w3.org/2000/svg">
<path d="M7 0.03968C4.26049 0.03968 2.03968 2.26049 2.03968 5C2.03968 7.73951 4.26049 9.96032 7 9.96032C9.73951 9.96032 11.9603 7.73951 11.9603 5C11.9603 2.26049 9.73951 0.03968 7 0.03968ZM6.34235 105.658C6.70556 106.021 7.29444 106.021 7.65765 105.658L13.5765 99.7388C13.9397 99.3756 13.9397 98.7867 13.5765 98.4235C13.2133 98.0603 12.6244 98.0603 12.2612 98.4235L7 103.685L1.73879 98.4235C1.37558 98.0603 0.786694 98.0603 0.423483 98.4235C0.0602717 98.7867 0.0602717 99.3756 0.423483 99.7388L6.34235 105.658ZM6.06994 5L6.06994 105H7.93006L7.93006 5H6.06994Z" fill="white"/>
</svg>
