<svg width="224" height="279" viewBox="0 0 224 279" fill="none" xmlns="http://www.w3.org/2000/svg">
<g id="Subtract">
<path d="M62.4394 0C31.8798 25.7539 11.2008 63.2821 7.07348 105.777C3.11258 106.111 0 109.497 0 113.625C0 117.974 3.45509 121.5 7.71715 121.5C11.9792 121.5 15.4343 117.974 15.4343 113.625C15.4343 109.662 12.5652 106.382 8.83086 105.831C13.0145 63.1048 34.124 25.4663 65.2173 0H62.4394Z" fill="url(#paint0_linear_717_561)"/>
<path d="M160.657 277.21C183.255 277.21 204.706 272.197 224 263.202V265.167C204.673 274.055 183.231 279 160.657 279C137.675 279 115.866 273.874 96.2683 264.682H100.591C119.025 272.745 139.33 277.21 160.657 277.21Z" fill="url(#paint1_linear_717_561)"/>
</g>
<defs>
<linearGradient id="paint0_linear_717_561" x1="9.12027" y1="97.517" x2="-38.7604" y2="201.312" gradientUnits="userSpaceOnUse">
<stop stop-color="white"/>
<stop offset="0.627298" stop-color="white" stop-opacity="0.5"/>
<stop offset="1" stop-color="white" stop-opacity="0"/>
</linearGradient>
<linearGradient id="paint1_linear_717_561" x1="9.12027" y1="97.517" x2="-38.7604" y2="201.312" gradientUnits="userSpaceOnUse">
<stop stop-color="white"/>
<stop offset="0.627298" stop-color="white" stop-opacity="0.5"/>
<stop offset="1" stop-color="white" stop-opacity="0"/>
</linearGradient>
</defs>
</svg>
