<svg width="56" height="54" viewBox="0 0 56 54" fill="none" xmlns="http://www.w3.org/2000/svg">
<path id="Vector" d="M54.6009 24.5974L43.3334 34.4386L46.7087 49.0904C46.8873 49.8563 46.8363 50.658 46.5622 51.3951C46.288 52.1322 45.8028 52.7721 45.1672 53.2347C44.5317 53.6974 43.7739 53.9623 42.9887 53.9963C42.2036 54.0303 41.4258 53.8319 40.7527 53.4259L27.9838 45.675L15.2423 53.4259C14.5692 53.8319 13.7914 54.0303 13.0063 53.9963C12.2211 53.9623 11.4633 53.6974 10.8278 53.2347C10.1922 52.7721 9.707 52.1322 9.43284 51.3951C9.15868 50.658 9.10771 49.8563 9.28632 49.0904L12.6566 34.4536L1.38662 24.5974C0.790546 24.0829 0.35952 23.4038 0.147596 22.6451C-0.0643271 21.8864 -0.0477132 21.082 0.195354 20.3327C0.438422 19.5834 0.897122 18.9227 1.51393 18.4332C2.13075 17.9438 2.87821 17.6476 3.6626 17.5816L18.5176 16.2939L24.3162 2.45229C24.619 1.726 25.1298 1.1056 25.7842 0.669225C26.4386 0.232848 27.2074 0 27.9938 0C28.7801 0 29.5489 0.232848 30.2033 0.669225C30.8577 1.1056 31.3685 1.726 31.6713 2.45229L37.4874 16.2939L52.3374 17.5816C53.1218 17.6476 53.8693 17.9438 54.4861 18.4332C55.1029 18.9227 55.5616 19.5834 55.8046 20.3327C56.0477 21.082 56.0643 21.8864 55.8524 22.6451C55.6405 23.4038 55.2094 24.0829 54.6134 24.5974H54.6009Z" fill="white"/>
</svg>
