<svg width="60" height="56" viewBox="0 0 60 56" fill="none" xmlns="http://www.w3.org/2000/svg">
<g id="Vector">
<path d="M12.2046 12.8814C12.4063 12.2008 13.2605 12.2008 13.4622 12.8814L14.6445 16.8765C14.9048 17.7547 15.3433 18.5526 15.9252 19.2071C16.5072 19.8615 17.2167 20.3544 17.9973 20.6467L21.5463 21.9771C22.1512 22.2039 22.1512 23.1651 21.5463 23.3919L17.9955 24.7223C17.215 25.0151 16.5058 25.5084 15.9241 26.1632C15.3425 26.818 14.9044 27.6162 14.6445 28.4946L13.4622 32.4876C13.4187 32.6367 13.3345 32.7664 13.2216 32.8584C13.1087 32.9505 12.9728 33 12.8334 33C12.694 33 12.5581 32.9505 12.4452 32.8584C12.3323 32.7664 12.2481 32.6367 12.2046 32.4876L11.0223 28.4925C10.7622 27.6145 10.324 26.8167 9.74235 26.1623C9.16072 25.5079 8.45164 25.0149 7.67129 24.7223L4.1205 23.3919C3.98804 23.343 3.87269 23.2483 3.79091 23.1213C3.70913 22.9942 3.6651 22.8414 3.6651 22.6845C3.6651 22.5276 3.70913 22.3748 3.79091 22.2478C3.87269 22.1207 3.98804 22.026 4.1205 21.9771L7.67129 20.6467C8.45164 20.3541 9.16072 19.8611 9.74235 19.2067C10.324 18.5523 10.7622 17.7545 11.0223 16.8765L12.2046 12.8814ZM5.12323 2.36467C5.14951 2.27535 5.20015 2.19763 5.26794 2.14254C5.33573 2.08745 5.41723 2.0578 5.50085 2.0578C5.58448 2.0578 5.66598 2.08745 5.73377 2.14254C5.80156 2.19763 5.85219 2.27535 5.87848 2.36467L6.5879 4.76131C6.90504 5.82969 7.64929 6.66706 8.59886 7.02388L10.729 7.82207C10.8083 7.85164 10.8774 7.90862 10.9264 7.98489C10.9754 8.06116 11.0017 8.15286 11.0017 8.24695C11.0017 8.34103 10.9754 8.43273 10.9264 8.509C10.8774 8.58527 10.8083 8.64225 10.729 8.67182L8.59886 9.47001C8.13054 9.64557 7.70499 9.94143 7.35594 10.3342C7.00689 10.7269 6.74393 11.2057 6.5879 11.7326L5.87848 14.1292C5.85219 14.2185 5.80156 14.2963 5.73377 14.3514C5.66598 14.4064 5.58448 14.4361 5.50085 14.4361C5.41723 14.4361 5.33573 14.4064 5.26794 14.3514C5.20015 14.2963 5.14951 14.2185 5.12323 14.1292L4.4138 11.7326C4.25777 11.2057 3.99481 10.7269 3.64577 10.3342C3.29672 9.94143 2.87117 9.64557 2.40285 9.47001L0.272747 8.67182C0.193362 8.64225 0.12428 8.58527 0.075317 8.509C0.026354 8.43273 0 8.34103 0 8.24695C0 8.15286 0.026354 8.06116 0.075317 7.98489C0.12428 7.90862 0.193362 7.85164 0.272747 7.82207L2.40285 7.02388C2.87117 6.84832 3.29672 6.55246 3.64577 6.15974C3.99481 5.76702 4.25777 5.28823 4.4138 4.76131L5.12323 2.36467ZM18.0817 0.2011C18.0998 0.142373 18.1337 0.0914486 18.1787 0.0554077C18.2237 0.0193668 18.2776 0 18.3328 0C18.3881 0 18.4419 0.0193668 18.4869 0.0554077C18.5319 0.0914486 18.5659 0.142373 18.584 0.2011L19.0569 1.79748C19.2677 2.51111 19.7645 3.07005 20.3988 3.30724L21.8176 3.83937C21.8698 3.85973 21.9151 3.89788 21.9471 3.94852C21.9791 3.99916 21.9963 4.05977 21.9963 4.12193C21.9963 4.18409 21.9791 4.2447 21.9471 4.29534C21.9151 4.34598 21.8698 4.38413 21.8176 4.40449L20.3988 4.93662C20.0862 5.05361 19.8022 5.25098 19.5692 5.51305C19.3363 5.77513 19.1609 6.0947 19.0569 6.44638L18.584 8.04276C18.5659 8.10149 18.5319 8.15241 18.4869 8.18845C18.4419 8.22449 18.3881 8.24386 18.3328 8.24386C18.2776 8.24386 18.2237 8.22449 18.1787 8.18845C18.1337 8.15241 18.0998 8.10149 18.0817 8.04276L17.6087 6.44638C17.5047 6.0947 17.3293 5.77513 17.0964 5.51305C16.8635 5.25098 16.5794 5.05361 16.2669 4.93662L14.8499 4.40449C14.7977 4.38413 14.7524 4.34598 14.7204 4.29534C14.6883 4.2447 14.6711 4.18409 14.6711 4.12193C14.6711 4.05977 14.6883 3.99916 14.7204 3.94852C14.7524 3.89788 14.7977 3.85973 14.8499 3.83937L16.2687 3.30724C16.903 3.07005 17.3997 2.51111 17.6106 1.79748L18.0817 0.203163V0.2011Z" fill="white"/>
<path d="M45.3069 27.3462C45.6094 26.3769 46.8908 26.3769 47.1932 27.3462L48.9668 33.0362C49.3572 34.287 50.0149 35.4235 50.8878 36.3555C51.7608 37.2876 52.8249 37.9896 53.996 38.406L59.3194 40.3007C60.2268 40.6238 60.2268 41.9927 59.3194 42.3158L53.9932 44.2105C52.8224 44.6275 51.7586 45.3302 50.8861 46.2628C50.0137 47.1953 49.3565 48.3322 48.9668 49.5832L47.1932 55.2702C47.128 55.4825 47.0017 55.6673 46.8323 55.7984C46.663 55.9294 46.4592 56 46.2501 56C46.0409 56 45.8372 55.9294 45.6678 55.7984C45.4984 55.6673 45.3721 55.4825 45.3069 55.2702L43.5334 49.5803C43.1433 48.3298 42.486 47.1935 41.6135 46.2615C40.7411 45.3295 39.6774 44.6273 38.5069 44.2105L33.1807 42.3158C32.982 42.2461 32.809 42.1112 32.6863 41.9303C32.5637 41.7494 32.4976 41.5317 32.4976 41.3082C32.4976 41.0848 32.5637 40.8671 32.6863 40.6862C32.809 40.5053 32.982 40.3703 33.1807 40.3007L38.5069 38.406C39.6774 37.9892 40.7411 37.287 41.6135 36.355C42.486 35.423 43.1433 34.2867 43.5334 33.0362L45.3069 27.3462ZM34.6848 12.3679C34.7242 12.2407 34.8002 12.13 34.9019 12.0515C35.0036 11.973 35.1258 11.9308 35.2513 11.9308C35.3767 11.9308 35.4989 11.973 35.6006 12.0515C35.7023 12.13 35.7783 12.2407 35.8177 12.3679L36.8818 15.7813C37.3575 17.3029 38.4739 18.4955 39.8983 19.0037L43.0934 20.1405C43.2125 20.1827 43.3161 20.2638 43.3896 20.3724C43.463 20.4811 43.5025 20.6117 43.5025 20.7457C43.5025 20.8797 43.463 21.0103 43.3896 21.1189C43.3161 21.2275 43.2125 21.3087 43.0934 21.3508L39.8983 22.4876C39.1958 22.7376 38.5575 23.159 38.0339 23.7183C37.5103 24.2777 37.1159 24.9596 36.8818 25.7101L35.8177 29.1234C35.7783 29.2507 35.7023 29.3614 35.6006 29.4398C35.4989 29.5183 35.3767 29.5605 35.2513 29.5605C35.1258 29.5605 35.0036 29.5183 34.9019 29.4398C34.8002 29.3614 34.7242 29.2507 34.6848 29.1234L33.6207 25.7101C33.3866 24.9596 32.9922 24.2777 32.4686 23.7183C31.945 23.159 31.3067 22.7376 30.6042 22.4876L27.4091 21.3508C27.29 21.3087 27.1864 21.2275 27.1129 21.1189C27.0395 21.0103 27 20.8797 27 20.7457C27 20.6117 27.0395 20.4811 27.1129 20.3724C27.1864 20.2638 27.29 20.1827 27.4091 20.1405L30.6042 19.0037C31.3067 18.7537 31.945 18.3323 32.4686 17.773C32.9922 17.2136 33.3866 16.5317 33.6207 15.7813L34.6848 12.3679ZM54.1225 9.28642C54.1496 9.20278 54.2005 9.13025 54.268 9.07892C54.3355 9.02759 54.4163 9.00001 54.4992 9.00001C54.5821 9.00001 54.6629 9.02759 54.7304 9.07892C54.7979 9.13025 54.8488 9.20278 54.8759 9.28642L55.5853 11.5601C55.9015 12.5764 56.6467 13.3725 57.5981 13.7103L59.7264 14.4682C59.8047 14.4972 59.8726 14.5515 59.9206 14.6237C59.9687 14.6958 59.9945 14.7821 59.9945 14.8706C59.9945 14.9592 59.9687 15.0455 59.9206 15.1176C59.8726 15.1897 59.8047 15.2441 59.7264 15.2731L57.5981 16.0309C57.1292 16.1976 56.7032 16.4787 56.3538 16.8519C56.0044 17.2252 55.7413 17.6803 55.5853 18.1812L54.8759 20.4548C54.8488 20.5385 54.7979 20.611 54.7304 20.6623C54.6629 20.7137 54.5821 20.7413 54.4992 20.7413C54.4163 20.7413 54.3355 20.7137 54.268 20.6623C54.2005 20.611 54.1496 20.5385 54.1225 20.4548L53.4131 18.1812C53.2571 17.6803 52.994 17.2252 52.6446 16.8519C52.2952 16.4787 51.8691 16.1976 51.4003 16.0309L49.2747 15.2731C49.1965 15.2441 49.1286 15.1897 49.0805 15.1176C49.0325 15.0455 49.0066 14.9592 49.0066 14.8706C49.0066 14.7821 49.0325 14.6958 49.0805 14.6237C49.1286 14.5515 49.1965 14.4972 49.2747 14.4682L51.403 13.7103C52.3544 13.3725 53.0996 12.5764 53.4158 11.5601L54.1225 9.28936V9.28642Z" fill="white"/>
</g>
</svg>
