<svg width="25" height="26" viewBox="0 0 25 26" fill="none" xmlns="http://www.w3.org/2000/svg">
<path d="M18.9267 24.6907L1.504 2.29067C1.41217 2.17241 1.35537 2.03076 1.34006 1.88183C1.32474 1.73289 1.35153 1.58265 1.41737 1.44818C1.48322 1.31371 1.58547 1.20042 1.71251 1.12119C1.83955 1.04196 1.98628 0.999974 2.136 1H5.44267C5.5644 1.00018 5.68448 1.02814 5.79377 1.08174C5.90306 1.13535 5.99867 1.21319 6.07333 1.30933L23.496 23.7093C23.5878 23.8276 23.6446 23.9692 23.6599 24.1182C23.6753 24.2671 23.6485 24.4174 23.5826 24.5518C23.5168 24.6863 23.4145 24.7996 23.2875 24.8788C23.1604 24.958 23.0137 25 22.864 25H19.5573C19.4356 24.9998 19.3155 24.9719 19.2062 24.9183C19.0969 24.8647 19.0013 24.7868 18.9267 24.6907Z" stroke="white" stroke-width="1.5"/>
<path d="M23.1667 1L1.83333 25" stroke="white" stroke-width="1.5" stroke-linecap="round"/>
</svg>
