<svg width="33" height="32" viewBox="0 0 33 32" fill="none" xmlns="http://www.w3.org/2000/svg">
<path d="M25.9 6.54658C24.6776 5.31182 23.2216 4.33281 21.6169 3.66665C20.0121 3.0005 18.2908 2.66053 16.5533 2.66658C9.27334 2.66658 3.34 8.59992 3.34 15.8799C3.34 18.2132 3.95334 20.4799 5.1 22.4799L3.23334 29.3333L10.2333 27.4933C12.1667 28.5466 14.34 29.1066 16.5533 29.1066C23.8333 29.1066 29.7667 23.1733 29.7667 15.8932C29.7667 12.3599 28.3933 9.03992 25.9 6.54658ZM16.5533 26.8666C14.58 26.8666 12.6467 26.3333 10.9533 25.3333L10.5533 25.0933L6.39334 26.1866L7.5 22.1333L7.23334 21.7199C6.137 19.9692 5.55486 17.9456 5.55334 15.8799C5.55334 9.82658 10.4867 4.89325 16.54 4.89325C19.4733 4.89325 22.2333 6.03992 24.3 8.11992C25.3233 9.13854 26.1343 10.3501 26.6859 11.6845C27.2375 13.0188 27.5187 14.4494 27.5133 15.8932C27.54 21.9466 22.6067 26.8666 16.5533 26.8666ZM22.58 18.6532C22.2467 18.4932 20.62 17.6933 20.3267 17.5732C20.02 17.4666 19.8067 17.4132 19.58 17.7332C19.3533 18.0666 18.7267 18.8132 18.54 19.0266C18.3533 19.2533 18.1533 19.2799 17.82 19.1066C17.4867 18.9466 16.42 18.5866 15.1667 17.4666C14.18 16.5866 13.5267 15.5066 13.3267 15.1733C13.14 14.8399 13.3 14.6666 13.4733 14.4932C13.62 14.3466 13.8067 14.1066 13.9667 13.9199C14.1267 13.7332 14.1933 13.5866 14.3 13.3732C14.4067 13.1466 14.3533 12.9599 14.2733 12.7999C14.1933 12.6399 13.5267 11.0133 13.26 10.3466C12.9933 9.70658 12.7133 9.78658 12.5133 9.77325H11.8733C11.6467 9.77325 11.3 9.85325 10.9933 10.1866C10.7 10.5199 9.84667 11.3199 9.84667 12.9466C9.84667 14.5733 11.0333 16.1466 11.1933 16.3599C11.3533 16.5866 13.5267 19.9199 16.8333 21.3466C17.62 21.6933 18.2333 21.8933 18.7133 22.0399C19.5 22.2933 20.22 22.2532 20.7933 22.1732C21.4333 22.0799 22.7533 21.3732 23.02 20.5999C23.3 19.8266 23.3 19.1733 23.2067 19.0266C23.1133 18.8799 22.9133 18.8132 22.58 18.6532Z" fill="white"/>
</svg>
